<?xml version="1.0" encoding="UTF-8"?>
<!DOCTYPE svg PUBLIC "-//W3C//DTD SVG 1.1//EN" "http://www.w3.org/Graphics/SVG/1.1/DTD/svg11.dtd">
<svg xmlns="http://www.w3.org/2000/svg" version="1.1" width="500px" height="500px" style="shape-rendering:geometricPrecision; text-rendering:geometricPrecision; image-rendering:optimizeQuality; fill-rule:evenodd; clip-rule:evenodd" xmlns:xlink="http://www.w3.org/1999/xlink">
<g><path style="opacity:1" fill="#005e8f" d="M 277.5,14.5 C 353.604,10.8316 408.104,43.1649 441,111.5C 450.34,132.531 454.673,154.531 454,177.5C 450.114,168.06 445.447,159.06 440,150.5C 427.532,112.74 403.366,85.2396 367.5,68C 314.076,44.8282 261.743,47.1616 210.5,75C 175.125,96.3988 153.958,127.566 147,168.5C 142.879,176.864 139.545,185.531 137,194.5C 133.044,137.265 152.211,89.4322 194.5,51C 218.798,31.1847 246.465,19.018 277.5,14.5 Z"/></g>
<g><path style="opacity:1" fill="#005e8f" d="M 178.5,17.5 C 191.894,17.0755 205.227,17.5755 218.5,19C 197.705,28.4484 179.705,41.7818 164.5,59C 122.213,67.3397 89.0458,89.1731 65,124.5C 38.4771,174.141 43.4771,220.474 80,263.5C 121.698,303.618 171.198,318.785 228.5,309C 270.787,300.66 303.954,278.827 328,243.5C 335.562,230.316 341.062,216.316 344.5,201.5C 347.727,202.909 351.06,203.909 354.5,204.5C 346.638,263.833 316.305,307.333 263.5,335C 203.03,360.55 147.03,353.217 95.5,313C 46.7772,267.328 28.6106,211.494 41,145.5C 56.2988,84.204 93.7988,43.3707 153.5,23C 161.877,20.7221 170.21,18.8888 178.5,17.5 Z"/></g>
<g><path style="opacity:1" fill="#005e8f" d="M 280.5,81.5 C 356.604,77.8316 411.104,110.165 444,178.5C 453.34,199.531 457.673,221.531 457,244.5C 453.114,235.06 448.447,226.06 443,217.5C 430.532,179.74 406.366,152.24 370.5,135C 317.076,111.828 264.743,114.162 213.5,142C 178.125,163.399 156.958,194.566 150,235.5C 145.879,243.864 142.545,252.531 140,261.5C 136.044,204.265 155.211,156.432 197.5,118C 221.798,98.1847 249.465,86.018 280.5,81.5 Z"/></g>
<g><path style="opacity:1" fill="#005e8f" d="M 139.5,95.5 C 140.833,96.1667 140.833,96.1667 139.5,95.5 Z"/></g>
<g><path style="opacity:1" fill="#005e8f" d="M 139.5,96.5 C 133.502,110.329 129.002,124.663 126,139.5C 96.6135,154.053 74.7802,176.053 60.5,205.5C 57.6904,195.015 56.857,184.348 58,173.5C 75.9901,138.007 103.157,112.34 139.5,96.5 Z"/></g>
<g><path style="opacity:1" fill="#005e8f" d="M 283.5,148.5 C 359.604,144.832 414.104,177.165 447,245.5C 472.038,310.553 463.371,370.553 421,425.5C 383.194,467.809 336.028,485.643 279.5,479C 300.295,469.552 318.295,456.218 333.5,439C 375.787,430.66 408.954,408.827 433,373.5C 461.288,318.722 453.455,269.556 409.5,226C 368.648,192.119 321.982,179.786 269.5,189C 233.127,196.094 202.96,213.594 179,241.5C 166.746,258.012 158.246,276.346 153.5,296.5C 150.273,295.091 146.94,294.091 143.5,293.5C 150.967,236.905 179.3,194.405 228.5,166C 246.023,157.213 264.357,151.379 283.5,148.5 Z"/></g>
<g><path style="opacity:1" fill="#005e8f" d="M 121.5,173.5 C 123.569,184.84 125.069,196.507 126,208.5C 107.691,217.831 92.0248,230.498 79,246.5C 75.1661,241.503 71.8328,236.17 69,230.5C 68.4484,227.581 69.1151,224.914 71,222.5C 84.7788,202.886 101.612,186.553 121.5,173.5 Z"/></g>
<g><path style="opacity:1" fill="#005e8f" d="M 240.5,214.5 C 259.816,211.739 273.649,219.072 282,236.5C 287.489,257.349 280.655,272.515 261.5,282C 240.651,287.489 225.485,280.655 216,261.5C 210.517,238.46 218.683,222.793 240.5,214.5 Z"/></g>
<g><path style="opacity:1" fill="#005e8f" d="M 357.5,236.5 C 362.038,293.603 343.038,341.436 300.5,380C 246.53,421.714 188.53,428.048 126.5,399C 71.2824,366.397 42.7824,317.897 41,253.5C 44.8861,262.94 49.5528,271.94 55,280.5C 69.2234,323.058 97.39,352.225 139.5,368C 195.21,387.495 247.543,380.828 296.5,348C 324.155,327.201 340.989,299.701 347,265.5C 351.599,256.201 355.099,246.534 357.5,236.5 Z"/></g>
<g><path style="opacity:1" fill="#005e8f" d="M 418.5,251.5 C 422.722,256.255 426.222,261.588 429,267.5C 429.552,270.419 428.885,273.086 427,275.5C 413.223,295.445 396.056,311.779 375.5,324.5C 374.373,312.789 373.206,301.122 372,289.5C 390.313,280.262 405.813,267.596 418.5,251.5 Z"/></g>
<g><path style="opacity:1" fill="#005e8f" d="M 358.5,401.5 C 364.498,387.671 368.998,373.337 372,358.5C 401.386,343.947 423.22,321.947 437.5,292.5C 440.31,302.985 441.143,313.652 440,324.5C 422.01,359.993 394.843,385.66 358.5,401.5 Z"/></g>
<g><path style="opacity:1" fill="#005e8f" d="M 360.5,303.5 C 365.038,360.603 346.038,408.436 303.5,447C 249.53,488.714 191.53,495.048 129.5,466C 74.2824,433.397 45.7824,384.897 44,320.5C 47.8861,329.94 52.5528,338.94 58,347.5C 72.2234,390.058 100.39,419.225 142.5,435C 198.21,454.495 250.543,447.828 299.5,415C 327.155,394.201 343.989,366.701 350,332.5C 354.599,323.201 358.099,313.534 360.5,303.5 Z"/></g>
<g><path style="opacity:1" fill="#005e8f" d="M 358.5,401.5 C 357.833,402.167 357.833,402.167 358.5,401.5 Z"/></g>
</svg>
