<?xml version="1.0" encoding="UTF-8"?>
<svg xmlns="http://www.w3.org/2000/svg" xmlns:xlink="http://www.w3.org/1999/xlink" width="50px" height="50px" viewBox="0 0 50 50" version="1.1">
<g id="surface1">
<path style=" stroke:none;fill-rule:evenodd;fill:rgb(0%,36.862746%,56.078434%);fill-opacity:1;" d="M 27.75 1.449219 C 35.359375 1.082031 40.808594 4.316406 44.101562 11.148438 C 45.035156 13.253906 45.46875 15.453125 45.398438 17.75 C 45.011719 16.804688 44.542969 15.90625 44 15.050781 C 42.753906 11.273438 40.335938 8.523438 36.75 6.800781 C 31.40625 4.484375 26.175781 4.714844 21.050781 7.5 C 17.511719 9.640625 15.394531 12.757812 14.699219 16.851562 C 14.289062 17.6875 13.953125 18.554688 13.699219 19.449219 C 13.304688 13.726562 15.222656 8.941406 19.449219 5.101562 C 21.878906 3.117188 24.648438 1.902344 27.75 1.449219 Z M 27.75 1.449219 "/>
<path style=" stroke:none;fill-rule:evenodd;fill:rgb(0%,36.862746%,56.078434%);fill-opacity:1;" d="M 17.851562 1.75 C 19.1875 1.707031 20.523438 1.757812 21.851562 1.898438 C 19.769531 2.84375 17.96875 4.179688 16.449219 5.898438 C 12.222656 6.734375 8.90625 8.917969 6.5 12.449219 C 3.847656 17.414062 4.347656 22.046875 8 26.351562 C 12.167969 30.363281 17.121094 31.878906 22.851562 30.898438 C 27.078125 30.066406 30.394531 27.882812 32.800781 24.351562 C 33.554688 23.03125 34.105469 21.632812 34.449219 20.148438 C 34.773438 20.289062 35.105469 20.390625 35.449219 20.449219 C 34.664062 26.382812 31.628906 30.734375 26.351562 33.5 C 20.304688 36.054688 14.703125 35.320312 9.550781 31.300781 C 4.675781 26.734375 2.859375 21.148438 4.101562 14.550781 C 5.628906 8.421875 9.378906 4.335938 15.351562 2.300781 C 16.1875 2.070312 17.019531 1.890625 17.851562 1.75 Z M 17.851562 1.75 "/>
<path style=" stroke:none;fill-rule:evenodd;fill:rgb(0%,36.862746%,56.078434%);fill-opacity:1;" d="M 28.050781 8.148438 C 35.660156 7.78125 41.109375 11.015625 44.398438 17.851562 C 45.335938 19.953125 45.765625 22.152344 45.699219 24.449219 C 45.3125 23.507812 44.84375 22.605469 44.300781 21.75 C 43.054688 17.972656 40.636719 15.222656 37.050781 13.5 C 31.707031 11.183594 26.472656 11.417969 21.351562 14.199219 C 17.8125 16.339844 15.695312 19.457031 15 23.550781 C 14.589844 24.386719 14.253906 25.253906 14 26.148438 C 13.605469 20.425781 15.519531 15.644531 19.75 11.800781 C 22.179688 9.820312 24.945312 8.601562 28.050781 8.148438 Z M 28.050781 8.148438 "/>
<path style=" stroke:none;fill-rule:evenodd;fill:rgb(0%,36.862746%,56.078434%);fill-opacity:1;" d="M 13.949219 9.550781 C 14.082031 9.617188 14.082031 9.617188 13.949219 9.550781 Z M 13.949219 9.550781 "/>
<path style=" stroke:none;fill-rule:evenodd;fill:rgb(0%,36.862746%,56.078434%);fill-opacity:1;" d="M 13.949219 9.648438 C 13.351562 11.03125 12.898438 12.464844 12.601562 13.949219 C 9.660156 15.40625 7.476562 17.605469 6.050781 20.550781 C 5.769531 19.5 5.6875 18.433594 5.800781 17.351562 C 7.597656 13.800781 10.316406 11.234375 13.949219 9.648438 Z M 13.949219 9.648438 "/>
<path style=" stroke:none;fill-rule:evenodd;fill:rgb(0%,36.862746%,56.078434%);fill-opacity:1;" d="M 28.351562 14.851562 C 35.960938 14.484375 41.410156 17.714844 44.699219 24.550781 C 47.203125 31.054688 46.335938 37.054688 42.101562 42.550781 C 38.320312 46.78125 33.601562 48.5625 27.949219 47.898438 C 30.03125 46.957031 31.828125 45.621094 33.351562 43.898438 C 37.578125 43.066406 40.894531 40.882812 43.300781 37.351562 C 46.128906 31.871094 45.34375 26.957031 40.949219 22.601562 C 36.863281 19.210938 32.199219 17.980469 26.949219 18.898438 C 23.3125 19.609375 20.296875 21.359375 17.898438 24.148438 C 16.675781 25.800781 15.824219 27.632812 15.351562 29.648438 C 15.027344 29.507812 14.695312 29.410156 14.351562 29.351562 C 15.097656 23.691406 17.929688 19.441406 22.851562 16.601562 C 24.601562 15.722656 26.4375 15.136719 28.351562 14.851562 Z M 28.351562 14.851562 "/>
<path style=" stroke:none;fill-rule:evenodd;fill:rgb(0%,36.862746%,56.078434%);fill-opacity:1;" d="M 12.148438 17.351562 C 12.355469 18.484375 12.507812 19.652344 12.601562 20.851562 C 10.769531 21.78125 9.203125 23.050781 7.898438 24.648438 C 7.515625 24.148438 7.183594 23.617188 6.898438 23.050781 C 6.84375 22.757812 6.910156 22.492188 7.101562 22.25 C 8.476562 20.289062 10.160156 18.65625 12.148438 17.351562 Z M 12.148438 17.351562 "/>
<path style=" stroke:none;fill-rule:evenodd;fill:rgb(0%,36.862746%,56.078434%);fill-opacity:1;" d="M 24.050781 21.449219 C 25.980469 21.175781 27.363281 21.90625 28.199219 23.648438 C 28.75 25.734375 28.066406 27.25 26.148438 28.199219 C 24.066406 28.75 22.546875 28.066406 21.601562 26.148438 C 21.050781 23.847656 21.867188 22.28125 24.050781 21.449219 Z M 24.050781 21.449219 "/>
<path style=" stroke:none;fill-rule:evenodd;fill:rgb(0%,36.862746%,56.078434%);fill-opacity:1;" d="M 35.75 23.648438 C 36.203125 29.359375 34.304688 34.144531 30.050781 38 C 24.652344 42.171875 18.851562 42.804688 12.648438 39.898438 C 7.128906 36.640625 4.277344 31.789062 4.101562 25.351562 C 4.488281 26.292969 4.957031 27.195312 5.5 28.050781 C 6.921875 32.304688 9.738281 35.222656 13.949219 36.800781 C 19.519531 38.75 24.753906 38.082031 29.648438 34.800781 C 32.414062 32.71875 34.097656 29.96875 34.699219 26.550781 C 35.160156 25.621094 35.511719 24.652344 35.75 23.648438 Z M 35.75 23.648438 "/>
<path style=" stroke:none;fill-rule:evenodd;fill:rgb(0%,36.862746%,56.078434%);fill-opacity:1;" d="M 41.851562 25.148438 C 42.273438 25.625 42.621094 26.160156 42.898438 26.75 C 42.957031 27.042969 42.886719 27.308594 42.699219 27.550781 C 41.324219 29.542969 39.605469 31.179688 37.550781 32.449219 C 37.4375 31.277344 37.320312 30.113281 37.199219 28.949219 C 39.03125 28.027344 40.582031 26.757812 41.851562 25.148438 Z M 41.851562 25.148438 "/>
<path style=" stroke:none;fill-rule:evenodd;fill:rgb(0%,36.862746%,56.078434%);fill-opacity:1;" d="M 35.851562 40.148438 C 36.449219 38.765625 36.898438 37.332031 37.199219 35.851562 C 40.136719 34.394531 42.320312 32.195312 43.75 29.25 C 44.03125 30.296875 44.113281 31.363281 44 32.449219 C 42.199219 36 39.484375 38.566406 35.851562 40.148438 Z M 35.851562 40.148438 "/>
<path style=" stroke:none;fill-rule:evenodd;fill:rgb(0%,36.862746%,56.078434%);fill-opacity:1;" d="M 36.050781 30.351562 C 36.503906 36.058594 34.605469 40.84375 30.351562 44.699219 C 24.953125 48.871094 19.152344 49.503906 12.949219 46.601562 C 7.429688 43.339844 4.578125 38.488281 4.398438 32.050781 C 4.789062 32.992188 5.253906 33.894531 5.800781 34.75 C 7.222656 39.003906 10.039062 41.921875 14.25 43.5 C 19.820312 45.449219 25.054688 44.78125 29.949219 41.5 C 32.714844 39.421875 34.398438 36.671875 35 33.25 C 35.460938 32.320312 35.808594 31.351562 36.050781 30.351562 Z M 36.050781 30.351562 "/>
<path style=" stroke:none;fill-rule:evenodd;fill:rgb(0%,36.862746%,56.078434%);fill-opacity:1;" d="M 35.851562 40.148438 C 35.785156 40.214844 35.785156 40.214844 35.851562 40.148438 Z M 35.851562 40.148438 "/>
</g>
</svg>
